<svg xmlns="http://www.w3.org/2000/svg" width="48" height="48" viewBox="0 0 48 48"><g fill="none" fill-rule="evenodd"><rect width="48" height="48"/><path fill="#03BD61" fill-rule="nonzero" d="M0,14.1770016 L0,17.8793097 L0,19.6206903 L0,23.3229984 C0,24.5251536 1.01620601,25.5 2.26926982,25.5 C3.52241881,25.5 4.53858221,24.5251128 4.53858221,23.3229984 L4.53858221,19.6206903 L4.53858221,17.8793097 L4.53858221,14.1770016 C4.53858221,12.9748463 3.5235686,12 2.26926982,12 C1.01616344,12 0,12.9748872 0,14.1770016 Z M28.7307302,12 C27.4775812,12 26.4614178,12.9748872 26.4614178,14.1770016 L26.4614178,17.8793097 L26.4614178,19.6206903 L26.4614178,23.3229984 C26.4614178,24.5251536 27.4776238,25.5 28.7307302,25.5 C29.9838366,25.5 31,24.5251128 31,23.3229984 L31,19.6206903 L31,17.8793097 L31,14.1770016 C31,12.9748464 29.983794,12 28.7307302,12 Z M5.2813675,12 L5.2813675,26.5287532 C5.2813675,27.7409885 6.29758363,28.7333285 7.53780011,28.7333285 L9.43977024,28.7333285 L9.43977024,30.0493089 L9.43977024,33.7965411 C9.43977024,35.0132834 10.4502276,36 11.6962029,36 C12.9422628,36 13.9526778,35.0132834 13.9526778,33.7965411 L13.9526778,30.0481925 L13.9526778,28.7322534 L17.0324915,28.7322534 L17.0324915,30.0481925 L17.0324915,33.7954247 C17.0336772,35.012167 18.0429489,35.9988836 19.2901097,35.9988836 C20.5361697,35.9988836 21.5465847,35.012167 21.5465847,33.7954247 L21.5465847,30.0481925 L21.5465847,28.7322534 L23.4485548,28.7322534 C24.6899569,28.7322534 25.7049874,27.7399134 25.7049874,26.5276781 L25.7049874,12 L25.6680209,12 L5.39340999,12 L5.2813675,12 Z M25.7049874,10.19564 C25.6760283,9.89682738 25.6314665,9.60138002 25.570199,9.31147308 C25.0310859,6.74622356 23.2499176,4.57376836 20.8071421,3.31129427 L22.3097885,0.525577575 C22.4033644,0.353209355 22.3387476,0.137215539 22.1671986,0.0431517705 C21.9956497,-0.0508710103 21.7806825,0.0140543769 21.6871066,0.186422597 L20.1655082,3.00804934 C18.8722333,2.44953526 17.4219502,2.13615342 15.8892011,2.13615342 C14.3453421,2.13615342 12.8839084,2.45400865 11.5839757,3.02032033 L10.0556787,0.186422597 C9.96210283,0.0140543769 9.74823848,-0.0508299424 9.57558671,0.0431517705 C9.40399692,0.137215579 9.3405238,0.352101285 9.43299685,0.525577575 L10.9434446,3.3258635 C8.61536182,4.5379404 6.89215254,6.5794368 6.28066219,8.99809125 C6.12251037,9.62600406 6.03779787,10.2796079 6.03779787,10.9500382 C6.03779787,11.0507916 6.04000351,11.1503958 6.04449644,11.25 L25.7049874,11.25 L25.7049874,10.19564 Z M21.1664052,6.75001654 C21.1664052,7.16425814 20.8278107,7.5 20.4099749,7.5 C19.9921724,7.5 19.6535445,7.16425814 19.6535445,6.75001654 C19.6535445,6.33574186 19.9921724,6 20.4099749,6 C20.8278107,6 21.1664052,6.33574186 21.1664052,6.75001654 Z M12.0892408,6.75001654 C12.0892408,7.16425814 11.7506129,7.5 11.3328104,7.5 C10.9149746,7.5 10.5763801,7.16425814 10.5763801,6.75001654 C10.5763801,6.33574186 10.9149746,6 11.3328104,6 C11.7506129,6 12.0892408,6.33574186 12.0892408,6.75001654 Z" transform="translate(8 6)"/></g></svg>