<svg xmlns="http://www.w3.org/2000/svg" width="112" height="28" viewBox="0 0 112 28"><g fill="#FFF"><g transform="translate(0 .317)"><path d="M16.5371376 12.9420009C16.5615644 11.0460639 17.5555218 9.29479493 19.170775 8.3017538 18.1471556 6.83984312 16.4941243 5.94619002 14.710346 5.89038006 12.8336659 5.69339592 11.0143063 7.01335505 10.0579844 7.01335505 9.08315539 7.01335505 7.61074757 5.90993766 6.02520742 5.94255973 3.93905002 6.00995904 2.04133249 7.16730741 1.02637449 8.99116475-1.13501961 12.7332822.477185928 18.232935 2.54762043 21.2577803 3.58350263 22.7389611 4.79415155 24.3934781 6.3782612 24.3348053 7.92840768 24.2705111 8.50735732 23.3463308 10.3785166 23.3463308 12.2323088 23.3463308 12.7754848 24.3348053 14.391736 24.2975006 16.0551154 24.2705 17.1031233 22.8097373 18.1026619 21.3145309 18.8469416 20.2591355 19.4196636 19.0926937 19.7996133 17.8584126 17.8240237 17.0228351 16.5394434 15.0870274 16.5371376 12.9420009L16.5371376 12.9420009ZM13.4843304 3.90103695C14.391274 2.8122843 14.8380906 1.41287723 14.7298925-1.98521571e-15 13.3442844.145531434 12.0643707.807762008 11.1451745 1.85474212 10.2375105 2.88772871 9.77769002 4.23915172 9.86699043 5.61135458 11.2711778 5.62581242 12.6044241 4.99543909 13.4843304 3.90103695L13.4843304 3.90103695Z"/><path d="M8.80091961 10.3583862 3.51098019 10.3583862 2.24060796 14.1094779 7.94086285e-15 14.1094779 5.01054514.231405513 7.33845822.231405513 12.3490034 14.1094779 10.0701854 14.1094779 8.80091961 10.3583862ZM4.05885001 8.62744929 8.25199927 8.62744929 6.1849175 2.53970512 6.12707171 2.53970512 4.05885001 8.62744929ZM23.1700777 9.05091043C23.1700777 12.1951912 21.487163 14.2153348 18.9475138 14.2153348 17.6347913 14.2840039 16.3982784 13.5964325 15.7639502 12.4450926L15.7158943 12.4450926 15.7158943 17.456733 13.6389891 17.456733 13.6389891 3.99124777 15.6493538 3.99124777 15.6493538 5.67416242 15.6875526 5.67416242C16.3500616 4.53004054 17.5879078 3.84276518 18.909315 3.8853797 21.4772948 3.88539087 23.1700777 5.9153579 23.1700777 9.05091043ZM21.0353266 9.05091043C21.0353266 7.00239161 19.9766794 5.65561064 18.361434 5.65561064 16.7745639 5.65561064 15.7071884 7.03075572 15.7071884 9.05091043 15.7071884 11.0896169 16.7745639 12.4549385 18.361434 12.4549385 19.9766905 12.4549385 21.0353266 11.1179922 21.0353266 9.05091043ZM34.3065546 9.05091043C34.3065546 12.1951912 32.6236399 14.2153348 30.0839907 14.2153348 28.7712682 14.2840039 27.5347553 13.5964325 26.9004271 12.4450926L26.8523713 12.4450926 26.8523713 17.456733 24.775466 17.456733 24.775466 3.99124777 26.785786 3.99124777 26.785786 5.67416242 26.8239848 5.67416242C27.4864986 4.53004123 28.7243496 3.84276992 30.0457584 3.88539087 32.6138164 3.88539087 34.3065546 5.9153579 34.3065546 9.05091043ZM32.1718147 9.05091043C32.1718147 7.00239161 31.1131563 5.65561064 29.4979109 5.65561064 27.9110409 5.65561064 26.8436653 7.03075572 26.8436653 9.05091043 26.8436653 11.0896169 27.9110409 12.4549385 29.4979109 12.4549385 31.1131675 12.4549385 32.1718147 11.1179922 32.1718147 9.05091043L32.1718147 9.05091043ZM41.6668503 10.2426946C41.8207406 11.6189349 43.1576981 12.5225519 44.9846573 12.5225519 46.7352412 12.5225519 47.9946947 11.6188902 47.9946947 10.3779773 47.9946947 9.30077831 47.2350887 8.65579105 45.4364937 8.21376695L43.6378986 7.78048231C41.0895211 7.1649432 39.906454 5.97314782 39.906454 4.03921418 39.906454 1.64471586 41.9931828 0 44.956282 0 47.8888043 0 49.8991578 1.64471586 49.9668271 4.03921418L47.8702525 4.03921418C47.7447486 2.6542456 46.5998803 1.81825323 44.9267891 1.81825323 43.253698 1.81825323 42.1088408 2.66408027 42.1088408 3.8951585 42.1088408 4.87631295 42.8400715 5.45365328 44.6288431 5.89562149L46.1578673 6.27106034C49.0052861 6.94444524 50.1883533 8.08824069 50.1883533 10.1181854 50.1883533 12.7145852 48.1201763 14.3407493 44.8307445 14.3407493 41.7530378 14.3407493 39.6750485 12.752784 39.5408051 10.2425941L41.6668503 10.2426946ZM54.6706868 1.59674945 54.6706868 3.99124777 56.5947969 3.99124777 56.5947969 5.63596363 54.6706868 5.63596363 54.6706868 11.2140256C54.6706868 12.0805837 55.0559491 12.4843978 55.901765 12.4843978 56.1301882 12.4804147 56.3582417 12.4643738 56.5849734 12.436342L56.5849734 14.0712344C56.2046935 14.1422894 55.8181711 14.17447 55.4313768 14.1672789 53.382858 14.1672789 52.583958 13.3978495 52.583958 11.4355405L52.583958 5.63596363 51.1127795 5.63596363 51.1127795 3.99124777 52.5839356 3.99124777 52.5839356 1.59674945 54.6706868 1.59674945ZM57.7091442 9.05091043C57.7091442 5.86734679 59.5841368 3.86683909 62.5079643 3.86683909 65.4416042 3.86683909 67.3078685 5.86730209 67.3078685 9.05091043 67.3078685 12.2432135 65.4514277 14.2349818 62.5079643 14.2349818 59.5655403 14.2349818 57.7091442 12.2432023 57.7091442 9.05091043ZM65.1916693 9.05091043C65.1916693 6.86705303 64.1908678 5.57812902 62.5079532 5.57812902 60.8250385 5.57812902 59.8253323 6.87687653 59.8253323 9.05091043 59.8253323 11.2434961 60.8250385 12.5226078 62.5079532 12.5226078 64.1908678 12.5226078 65.1916693 11.2434961 65.1916693 9.05091043L65.1916693 9.05091043ZM69.0201978 3.99124777 71.0010697 3.99124777 71.0010697 5.71343407 71.0491255 5.71343407C71.3253638 4.60478464 72.3411928 3.84177358 73.4829067 3.88536852 73.7222515 3.88453283 73.9609359 3.91052602 74.1944903 3.96286132L74.1944903 5.90552323C73.8923321 5.81319272 73.5771292 5.77080075 73.2613135 5.78001932 72.6507232 5.75524871 72.0598073 5.99858916 71.6437228 6.44614664 71.2276383 6.89370413 71.0279547 7.50076477 71.0971031 8.1079324L71.0971031 14.1094555 69.0201978 14.1094555 69.0201978 3.99124777ZM83.7702597 11.137628C83.4908654 12.9744219 81.7020827 14.2349706 79.4134524 14.2349706 76.4699891 14.2349706 74.6430187 12.2628382 74.6430187 9.09892154 74.6430187 5.92518141 76.4798126 3.86682792 79.3261473 3.86682792 82.1255438 3.86682792 83.8859513 5.78984282 83.8859513 8.85772605L83.8859513 9.56930974 76.739571 9.56930974 76.739571 9.69481364C76.6728488 10.4480959 76.9329583 11.1937409 77.4537362 11.7420807 77.9745141 12.2904204 78.7057663 12.5886044 79.4614859 12.5607842 80.4693642 12.655219 81.4195961 12.0764684 81.7981384 11.1376168L83.7702597 11.137628ZM76.7493748 8.11777826 81.8079508 8.11777826C81.8456416 7.44089254 81.5992505 6.77898022 81.1281398 6.29150256 80.6570292 5.80402489 80.003914 5.53518099 79.3261473 5.54974256 78.6430191 5.54566589 77.9865643 5.81463585 77.5026924 6.29686882 77.0188204 6.77910179 76.7476246 7.43464017 76.7493748 8.11777826L76.7493748 8.11777826Z" transform="translate(27.331 10.227)"/></g><g transform="translate(28.721)"><path d="M2.40868038.328567665C3.29038898.265295123 4.15400306.600750692 4.76181862 1.24260247 5.36963419 1.88445425 5.65758414 2.76504754 5.54641218 3.64200493 5.54641218 5.77238627 4.39500603 6.99697137 2.40868038 6.99697137L7.94086285e-15 6.99697137 7.94086285e-15.328567665 2.40868038.328567665ZM1.03571457 6.05391511 2.2929888 6.05391511C2.92310329 6.0915797 3.53664706 5.84331777 3.96326198 5.37806237 4.38987691 4.91280696 4.58414434 4.28009051 4.49212348 3.65559467 4.57744939 3.03369044 4.3803843 2.40619513 3.95482714 1.94473388 3.52926998 1.48327262 2.91975472 1.23613671 2.2929888 1.27091985L1.03571457 1.27091985 1.03571457 6.05391511ZM6.71637011 4.47851139C6.63007877 3.57649821 7.06259959 2.70354408 7.8325345 2.2257636 8.60246942 1.74798311 9.57669894 1.74798311 10.3466339 2.2257636 11.1165688 2.70354408 11.5490896 3.57649821 11.4627983 4.47851139 11.5507314 5.38149386 11.1186054 6.25614111 10.3479878 6.73495016 9.57737018 7.21375922 8.60179818 7.21375922 7.83118059 6.73495016 7.06056301 6.25614111 6.62843697 5.38149386 6.71637011 4.47851139ZM10.4412657 4.47851139C10.4412657 3.38767791 9.95121936 2.74976491 9.09122143 2.74976491 8.22793783 2.74976491 7.74230588 3.38767791 7.74230588 4.47852256 7.74230588 5.57809549 8.22797136 6.21109115 9.09122143 6.21109115 9.95124171 6.21109115 10.4412657 5.57371459 10.4412657 4.47851139L10.4412657 4.47851139Z"/><polygon points="17.772 6.997 16.742 6.997 15.702 3.291 15.623 3.291 14.587 6.997 13.567 6.997 12.18 1.964 13.187 1.964 14.089 5.804 14.163 5.804 15.198 1.964 16.15 1.964 17.185 5.804 17.264 5.804 18.161 1.964 19.154 1.964"/><path d="M20.3204684,1.96449937 L21.2765221,1.96449937 L21.2765221,2.76393579 L21.3507404,2.76393579 C21.6088279,2.17533916 22.2119038,1.81528882 22.8524846,1.86735956 C23.3484841,1.830068 23.8345285,2.02034458 24.1733834,2.3844648 C24.5122382,2.74858501 24.6671315,3.24703504 24.5943291,3.73907768 L24.5943291,6.99681491 L23.6011719,6.99681491 L23.6011719,3.98847618 C23.6011719,3.17976387 23.2497497,2.7775814 22.5152445,2.7775814 C22.1788157,2.76191199 21.8523204,2.8939464 21.6213557,3.13906929 C21.390391,3.38419219 21.2779918,3.7179566 21.3136257,4.0528598 L21.3136257,6.99687078 L20.3204684,6.99687078 L20.3204684,1.96449937 Z"/><polygon points="26.177 0 27.17 0 27.17 6.997 26.177 6.997"/><path d="M28.5505967 4.47851139C28.4643716 3.5764392 28.8969607 2.70346298 29.6669527 2.22567512 30.4369448 1.74788727 31.4112244 1.74788727 32.1812164 2.22567512 32.9512085 2.70346298 33.3837975 3.5764392 33.2975725 4.47851139 33.3853939 5.38152618 32.9531887 6.25614872 32.1825329 6.73493669 31.411877 7.21372465 30.4362921 7.21372465 29.6656363 6.73493669 28.8949805 6.25614872 28.4627753 5.38152618 28.5505967 4.47851139L28.5505967 4.47851139ZM32.2754923 4.47851139C32.2754923 3.38767791 31.785446 2.74976491 30.925448 2.74976491 30.0621644 2.74976491 29.5765325 3.38767791 29.5765325 4.47852256 29.5765325 5.57809549 30.062198 6.21109115 30.925448 6.21109115 31.7854571 6.21109115 32.2754923 5.57371459 32.2754923 4.47851139L32.2754923 4.47851139ZM34.3431217 5.57371459C34.3431217 4.66786247 35.0176018 4.14564105 36.2148398 4.07142276L37.5779821 3.99284591 37.5779821 3.55847722C37.5779821 3.02696873 37.22656 2.7268434 36.5477213 2.7268434 35.9933025 2.7268434 35.6091354 2.93038772 35.4988976 3.28617956L34.5373901 3.28617956C34.6388885 2.42180074 35.4519705 1.86738192 36.5935532 1.86738192 37.8551971 1.86738192 38.5667808 2.49546024 38.5667808 3.55847722L38.5667808 6.99688196 37.6107271 6.99688196 37.6107271 6.289668 37.5321503 6.289668C37.2074367 6.8061298 36.6299903 7.10797274 36.0205826 7.079795 35.5933732 7.1242319 35.1673026 6.98587456 34.8477031 6.69892746 34.5281036 6.41198036 34.3448049 6.00322552 34.3431217 5.57371459L34.3431217 5.57371459ZM37.5779821 5.14370445 37.5779821 4.72298138 36.3490832 4.80155822C35.6560513 4.84793767 35.3417327 5.08367938 35.3417327 5.52732396 35.3417327 5.98024443 35.7346281 6.24381381 36.2749096 6.24381381 36.5947446 6.27618987 36.9140255 6.1773795 37.1596623 5.97000249 37.405299 5.76262549 37.5562582 5.46443908 37.5779821 5.14370445ZM39.8720662 4.47851139C39.8720662 2.88836682 40.6895179 1.88101636 41.9609742 1.88101636 42.6029963 1.85143424 43.2043095 2.19544988 43.5041917 2.76390226L43.57841 2.76390226 43.57841 0 44.5715672 0 44.5715672 6.99685961 43.6198833 6.99685961 43.6198833 6.20178174 43.5413064 6.20178174C43.218756 6.76551778 42.6100345 7.10371839 41.9609854 7.079795 40.6807896 7.07985088 39.8720662 6.07247807 39.8720662 4.47851139ZM40.8980019 4.47851139C40.8980019 5.54588692 41.4011351 6.18816965 42.2425925 6.18816965 43.0796577 6.18816965 43.5969953 5.5366222 43.5969953 4.48288111 43.5969953 3.43405736 43.0742263 2.77322285 42.2425925 2.77322285 41.4065554 2.77322285 40.8979684 3.41986413 40.8979684 4.47851139L40.8980019 4.47851139ZM48.68063 4.47851139C48.5943387 3.57649821 49.0268595 2.70354408 49.7967944 2.2257636 50.5667293 1.74798311 51.5409588 1.74798311 52.3108937 2.2257636 53.0808287 2.70354408 53.5133495 3.57649821 53.4270581 4.47851139 53.5149913 5.38149386 53.0828652 6.25614111 52.3122477 6.73495016 51.5416301 7.21375922 50.5660581 7.21375922 49.7954405 6.73495016 49.0248229 6.25614111 48.5926969 5.38149386 48.68063 4.47851139L48.68063 4.47851139ZM52.4055144 4.47851139C52.4055144 3.38767791 51.9154792 2.74976491 51.0554813 2.74976491 50.1921977 2.74976491 49.7065658 3.38767791 49.7065658 4.47852256 49.7065658 5.57809549 50.1922312 6.21109115 51.0554813 6.21109115 51.9154904 6.21109115 52.4055144 5.57371459 52.4055144 4.47851139ZM54.7596347 1.96449937 55.7156884 1.96449937 55.7156884 2.76393579 55.7899067 2.76393579C56.0479942 2.17533916 56.6510701 1.81528882 57.2916509 1.86735956 57.7876504 1.830068 58.2736948 2.02034458 58.6125497 2.3844648 58.9514045 2.74858501 59.1062978 3.24703504 59.0334954 3.73907768L59.0334954 6.99681491 58.0403381 6.99681491 58.0403381 3.98847618C58.0403381 3.17976387 57.688916 2.7775814 56.9544108 2.7775814 56.6179819 2.76191199 56.2914867 2.8939464 56.0605219 3.13906929 55.8295572 3.38419219 55.717158 3.7179566 55.7527919 4.0528598L55.7527919 6.99687078 54.7596347 6.99687078 54.7596347 1.96449937ZM64.6453976.711594862 64.6453976 1.98742087 65.7356946 1.98742087 65.7356946 2.82397203 64.6453976 2.82397203 64.6453976 5.41164356C64.6453976 5.93878232 64.8625875 6.16960669 65.3569813 6.16960669 65.4835531 6.16920161 65.6099979 6.16154858 65.7356946 6.14668519L65.7356946 6.97394928C65.5573399 7.00585691 65.3766346 7.02283215 65.1954578 7.02469845 64.0909788 7.02469845 63.6511451 6.6361616 63.6511451 5.66592587L63.6511451 2.82392733 62.8522563 2.82392733 62.8522563 1.98737617 63.6511451 1.98737617 63.6511451.711594862 64.6453976.711594862ZM67.0922767 0 68.0767057 0 68.0767057 2.77321168 68.1552825 2.77321168C68.4257672 2.17946371 69.0393979 1.81895455 69.6897159 1.87172929 70.1828989 1.84489323 70.6623637 2.03935883 70.997515 2.40215804 71.3326662 2.76495725 71.4885958 3.25830231 71.4228321 3.74781713L71.4228321 6.99687078 70.4286802 6.99687078 70.4286802 3.99282356C70.4286802 3.18901741 70.0542919 2.78192878 69.3525764 2.78192878 69.0070539 2.75359112 68.6666401 2.87920376 68.4223414 3.12518532 68.1780426 3.37116688 68.0547698 3.71243499 68.0854787 4.05775479L68.0854787 6.99687078 67.0923214 6.99687078 67.0922767 0ZM77.2137701 5.6380982C76.9352778 6.58734526 76.0166762 7.20066436 75.0331873 7.09399941 74.3621536 7.11171323 73.717253 6.8335712 73.2695928 6.33337103 72.8219325 5.83317087 72.6167692 5.16148056 72.7085375 4.49651555 72.6192066 3.82970254 72.8236012 3.15693594 73.2687686 2.65250995 73.713936 2.14808395 74.3560719 1.86163394 75.0288175 1.86737074 76.4290634 1.86737074 77.2737952 2.82401673 77.2737952 4.40427074L77.2737952 4.75082022 73.7202465 4.75082022 73.7202465 4.80647556C73.6888001 5.17990293 73.8163366 5.54927066 74.0714907 5.82373972 74.3266448 6.09820877 74.6857413 6.25231178 75.0604673 6.24815001 75.5463584 6.30648159 76.0193401 6.06546308 76.2577165 5.63806468L77.2137701 5.6380982ZM73.7202242 4.01630385 76.2620527 4.01630385C76.287369 3.67477278 76.1672804 3.33843196 75.9313805 3.0901667 75.6954806 2.84190145 75.3657083 2.70480056 75.0233302 2.71265017 74.6763136 2.70829041 74.3422429 2.84425743 74.0968994 3.08970826 73.8515559 3.33515909 73.715735 3.66928916 73.7202465 4.01630385L73.7202242 4.01630385Z"/></g></g></svg>