<?xml version="1.0" encoding="UTF-8"?>
<svg width="48px" height="48px" viewBox="0 0 48 48" version="1.1" xmlns="http://www.w3.org/2000/svg" xmlns:xlink="http://www.w3.org/1999/xlink">
    <title>编组 11</title>
    <g id="Download" stroke="none" stroke-width="1" fill="none" fill-rule="evenodd">
        <g id="Download_D" transform="translate(-1079.000000, -560.000000)">
            <g id="编组-15备份-6" transform="translate(1059.000000, 536.000000)">
                <g id="编组-11" transform="translate(20.000000, 24.000000)">
                    <rect id="矩形" x="0" y="0" width="48" height="48"></rect>
                    <g id="编组-28" transform="translate(10.400000, 5.600000)" fill="#4C4C4C" fill-rule="nonzero">
                        <path d="M22.8513338,17.8520618 C22.80664,13.5952231 26.3234116,11.5536742 26.4773842,11.4543001 C24.5054136,8.56835772 21.4307095,8.17098401 20.3329692,8.12129695 C17.7152715,7.85804557 15.2267028,9.66110471 13.9004593,9.66110471 C12.5742159,9.66110471 10.5277557,8.16099749 8.35707774,8.20073895 C5.50588355,8.24543275 2.87828114,9.8597711 1.40796978,12.4128838 C-1.55741461,17.5588917 0.647970572,25.1785704 3.53890623,29.3460624 C4.94958492,31.3876113 6.6334606,33.6774317 8.84387997,33.5979897 C10.9698232,33.5135544 11.7745162,32.2220592 14.3475201,32.2220592 C16.9205241,32.2220592 17.6407818,33.5979897 19.895895,33.5582073 C22.1857563,33.5135135 23.6362174,31.4769579 25.0369505,29.4304977 C26.6562412,27.0611534 27.3268119,24.7663397 27.361601,24.65702 C27.311914,24.6271832 22.8961094,22.9383961 22.8514156,17.8519799 L22.8513338,17.8520618 Z" id="路径"></path>
                        <path d="M18.6192567,5.36456548 C19.7914867,3.94394118 20.5812817,1.96701826 20.3677174,0 C18.6788485,0.0695373287 16.6323882,1.12258379 15.4203759,2.54320808 C14.3375336,3.80486652 13.3788271,5.81657858 13.637167,7.74385537 C15.51975,7.89287563 17.4469859,6.78518977 18.6192567,5.36460641 L18.6192567,5.36456548 Z" id="路径"></path>
                    </g>
                </g>
            </g>
        </g>
    </g>
</svg>