<svg xmlns="http://www.w3.org/2000/svg" xmlns:xlink="http://www.w3.org/1999/xlink" width="117" height="28" viewBox="0 0 117 28"><defs><path id="c" d="M0.486892511,0.0767670698 C0.180875836,0.400661008 0,0.902275971 0,1.55427026 L0,1.55427026 L0,24.8115376 C0,25.4624803 0.180875836,25.9651468 0.486892511,26.2890408 L0.486892511,26.2890408 L0.563659581,26.3647563 L13.5930294,13.3364381 L13.5930294,13.1829039 L13.5930294,13.0293698 L0.563659581,0 L0.486892511,0.0767670698 Z"/><path id="e" d="M0,4.34417487 L0,4.49770901 L0,4.65124315 L4.34207166,8.99646962 L4.44197401,8.94073462 L9.58641929,6.01622474 C11.0565613,5.18125141 11.0565613,3.8141666 9.58641929,2.97919327 L9.58641929,2.97919327 L4.44197401,0.0557349959 L4.34312326,0 L0,4.34417487 Z"/><path id="h" d="M8.75635977e-16,13.1061369 C0.4837377,13.6193195 1.28400811,13.6824157 2.18523248,13.1702847 L2.18523248,13.1702847 L17.5481109,4.44197401 L13.1061369,0 L8.75635977e-16,13.1061369 Z"/><path id="k" d="M8.75635977e-16,0.418538271 L13.1061369,13.5246751 L17.5481109,9.08270112 L2.18523248,0.353338842 C1.76248779,0.113573199 1.36182679,0 1.00638474,0 L1.00638474,0 C0.603620521,0 0.256591302,0.146172914 8.75635977e-16,0.418538271"/><linearGradient id="f" x1="0%" x2="100%" y1="50%" y2="50%"><stop offset="0%" stop-color="#FB0"/><stop offset="100%" stop-color="#FFDB00"/></linearGradient><linearGradient id="i" x1="86.243%" x2="-50.14%" y1="30.901%" y2="136.011%"><stop offset="0%" stop-color="#FF3A44"/><stop offset="100%" stop-color="#C31162"/></linearGradient><polygon id="a" points=".116 0 .889 0 .889 1.559 .116 1.559"/></defs><g fill="none" fill-rule="evenodd"><g transform="translate(0 .658)"><g transform="translate(31.336)"><path fill="#FFF" d="M6.40778767,3.39335711 C6.40778767,4.23541612 6.15858644,4.90564685 5.65917913,5.40605901 C5.09144245,6.00092647 4.35288234,6.2983602 3.44450366,6.2983602 C2.57430903,6.2983602 1.83373923,5.99690709 1.22580881,5.39299604 C0.615868692,4.79008983 0.312405901,4.04148129 0.312405901,3.1491801 C0.312405901,2.25587406 0.615868692,1.50827037 1.22580881,0.904359313 C1.83373923,0.301453104 2.57430903,0 3.44450366,0 C3.87558159,0 4.28957719,0.0844068692 4.68146623,0.252215764 C5.07436011,0.421029503 5.38887618,0.645109643 5.62501444,0.925461031 L5.09445698,1.45601849 C4.69553404,0.979722589 4.14588455,0.740569793 3.44450366,0.740569793 C2.80944245,0.740569793 2.2607978,0.96364509 1.79756486,1.40979569 C1.33433192,1.85695112 1.10321788,2.43574108 1.10321788,3.1491801 C1.10321788,3.86161427 1.33433192,4.44140907 1.79756486,4.88755967 C2.2607978,5.3347151 2.80944245,5.55678556 3.44450366,5.55678556 C4.11774892,5.55678556 4.6784517,5.33270542 5.12862167,4.88354029 C5.42002633,4.59113078 5.58884007,4.18517393 5.63305319,3.66265522 L3.44450366,3.66265522 L3.44450366,2.93816292 L6.36558424,2.93816292 C6.39371986,3.09592338 6.40778767,3.24664993 6.40778767,3.39335711"/><path stroke="#FFF" stroke-width=".2" d="M6.40778767,3.39335711 C6.40778767,4.23541612 6.15858644,4.90564685 5.65917913,5.40605901 C5.09144245,6.00092647 4.35288234,6.2983602 3.44450366,6.2983602 C2.57430903,6.2983602 1.83373923,5.99690709 1.22580881,5.39299604 C0.615868692,4.79008983 0.312405901,4.04148129 0.312405901,3.1491801 C0.312405901,2.25587406 0.615868692,1.50827037 1.22580881,0.904359313 C1.83373923,0.301453104 2.57430903,0 3.44450366,0 C3.87558159,0 4.28957719,0.0844068692 4.68146623,0.252215764 C5.07436011,0.421029503 5.38887618,0.645109643 5.62501444,0.925461031 L5.09445698,1.45601849 C4.69553404,0.979722589 4.14588455,0.740569793 3.44450366,0.740569793 C2.80944245,0.740569793 2.2607978,0.96364509 1.79756486,1.40979569 C1.33433192,1.85695112 1.10321788,2.43574108 1.10321788,3.1491801 C1.10321788,3.86161427 1.33433192,4.44140907 1.79756486,4.88755967 C2.2607978,5.3347151 2.80944245,5.55678556 3.44450366,5.55678556 C4.11774892,5.55678556 4.6784517,5.33270542 5.12862167,4.88354029 C5.42002633,4.59113078 5.58884007,4.18517393 5.63305319,3.66265522 L3.44450366,3.66265522 L3.44450366,2.93816292 L6.36558424,2.93816292 C6.39371986,3.09592338 6.40778767,3.24664993 6.40778767,3.39335711 Z"/><polygon fill="#FFF" points="11.039 .875 8.294 .875 8.294 2.787 10.769 2.787 10.769 3.511 8.294 3.511 8.294 5.422 11.039 5.422 11.039 6.164 7.519 6.164 7.519 .135 11.039 .135"/><polygon points="11.039 .875 8.294 .875 8.294 2.787 10.769 2.787 10.769 3.511 8.294 3.511 8.294 5.422 11.039 5.422 11.039 6.164 7.519 6.164 7.519 .135 11.039 .135"/><polygon fill="#FFF" points="14.306 6.164 13.531 6.164 13.531 .875 11.847 .875 11.847 .134 15.99 .134 15.99 .875 14.306 .875"/><polygon points="14.306 6.164 13.531 6.164 13.531 .875 11.847 .875 11.847 .134 15.99 .134 15.99 .875 14.306 .875"/><polygon fill="#FFF" points="18.988 6.164 19.762 6.164 19.762 .135 18.988 .135"/><polygon points="18.988 6.164 19.762 6.164 19.762 .135 18.988 .135"/><polygon fill="#FFF" points="23.199 6.164 22.424 6.164 22.424 .875 20.74 .875 20.74 .134 24.883 .134 24.883 .875 23.199 .875"/><polygon points="23.199 6.164 22.424 6.164 22.424 .875 20.74 .875 20.74 .134 24.883 .134 24.883 .875 23.199 .875"/><path fill="#FFF" d="M28.8768963,4.87952092 C29.3230469,5.33170057 29.868677,5.55678556 30.5147915,5.55678556 C31.1599011,5.55678556 31.7065361,5.33170057 32.1526867,4.87952092 C32.5988373,4.42734126 32.8229174,3.85056099 32.8229174,3.1491801 C32.8229174,2.44779921 32.5988373,1.87001409 32.1526867,1.41883928 C31.7065361,0.966659622 31.1599011,0.740569793 30.5147915,0.740569793 C29.868677,0.740569793 29.3230469,0.966659622 28.8768963,1.41883928 C28.4317505,1.87001409 28.2076704,2.44779921 28.2076704,3.1491801 C28.2076704,3.85056099 28.4317505,4.42734126 28.8768963,4.87952092 M32.7254476,5.38395244 C32.1325898,5.99389256 31.3960394,6.2983602 30.5147915,6.2983602 C29.6335436,6.2983602 28.8969931,5.99389256 28.3051402,5.38395244 C27.7122824,4.77501717 27.4168584,4.03042801 27.4168584,3.1491801 C27.4168584,2.26793219 27.7122824,1.52233818 28.3051402,0.913402906 C28.8969931,0.304467635 29.6335436,0 30.5147915,0 C31.3910152,0 32.1255559,0.305472479 32.7214282,0.917422281 C33.3162956,1.52937208 33.6137294,2.27295641 33.6137294,3.1491801 C33.6137294,4.03042801 33.3173005,4.77501717 32.7254476,5.38395244"/><path d="M28.8768963,4.87952092 C29.3230469,5.33170057 29.868677,5.55678556 30.5147915,5.55678556 C31.1599011,5.55678556 31.7065361,5.33170057 32.1526867,4.87952092 C32.5988373,4.42734126 32.8229174,3.85056099 32.8229174,3.1491801 C32.8229174,2.44779921 32.5988373,1.87001409 32.1526867,1.41883928 C31.7065361,0.966659622 31.1599011,0.740569793 30.5147915,0.740569793 C29.868677,0.740569793 29.3230469,0.966659622 28.8768963,1.41883928 C28.4317505,1.87001409 28.2076704,2.44779921 28.2076704,3.1491801 C28.2076704,3.85056099 28.4317505,4.42734126 28.8768963,4.87952092 Z M32.7254476,5.38395244 C32.1325898,5.99389256 31.3960394,6.2983602 30.5147915,6.2983602 C29.6335436,6.2983602 28.8969931,5.99389256 28.3051402,5.38395244 C27.7122824,4.77501717 27.4168584,4.03042801 27.4168584,3.1491801 C27.4168584,2.26793219 27.7122824,1.52233818 28.3051402,0.913402906 C28.8969931,0.304467635 29.6335436,0 30.5147915,0 C31.3910152,0 32.1255559,0.305472479 32.7214282,0.917422281 C33.3162956,1.52937208 33.6137294,2.27295641 33.6137294,3.1491801 C33.6137294,4.03042801 33.3173005,4.77501717 32.7254476,5.38395244 Z"/><polygon fill="#FFF" points="34.701 6.164 34.701 .134 35.643 .134 38.574 4.824 38.608 4.824 38.574 3.662 38.574 .134 39.349 .134 39.349 6.164 38.54 6.164 35.476 1.246 35.441 1.246 35.476 2.408 35.476 6.164"/><polygon points="34.701 6.164 34.701 .134 35.643 .134 38.574 4.824 38.608 4.824 38.574 3.662 38.574 .134 39.349 .134 39.349 6.164 38.54 6.164 35.476 1.246 35.441 1.246 35.476 2.408 35.476 6.164"/><path fill="#FFF" d="M66.2141744,23.2459532 L68.0882079,23.2459532 L68.0882079,10.6844024 L66.2141744,10.6844024 L66.2141744,23.2459532 Z M83.1025821,15.2092135 L80.9532215,20.6554662 L80.8879067,20.6554662 L78.6581585,15.2092135 L76.6384227,15.2092135 L79.9835474,22.8209044 L78.076354,27.0553156 L80.0317798,27.0553156 L85.1876328,15.2092135 L83.1025821,15.2092135 Z M72.4683215,21.8190752 C71.854362,21.8190752 70.9982352,21.511593 70.9982352,20.7519312 C70.9982352,19.7832619 72.0643743,19.4104649 72.985816,19.4104649 C73.8097878,19.4104649 74.1976574,19.5893271 74.6980696,19.8304896 C74.5533721,20.9951034 73.5515429,21.8190752 72.4683215,21.8190752 L72.4683215,21.8190752 Z M72.6944113,14.9338863 C71.3378723,14.9338863 69.9310912,15.5327731 69.3492867,16.8571571 L71.0133078,17.5525089 C71.3700273,16.8571571 72.0322193,16.6310673 72.7265663,16.6310673 C73.6962404,16.6310673 74.6829969,17.2128718 74.6980696,18.2468559 L74.6980696,18.3764808 C74.3584324,18.1825459 73.6319304,17.8921461 72.7426438,17.8921461 C70.9489978,17.8921461 69.122192,18.8778978 69.122192,20.7197762 C69.122192,22.4008797 70.5932831,23.4841012 72.2422316,23.4841012 C73.5023056,23.4841012 74.1976574,22.9183742 74.6337596,22.2551774 L74.6980696,22.2551774 L74.6980696,23.2248515 L76.5087979,23.2248515 L76.5087979,18.4086358 C76.5087979,16.1788876 74.8437719,14.9338863 72.6944113,14.9338863 L72.6944113,14.9338863 Z M61.1075588,16.7385856 L58.4407037,16.7385856 L58.4407037,12.4328304 L61.1075588,12.4328304 C62.5083109,12.4328304 63.3041471,13.59242 63.3041471,14.5852056 C63.3041471,15.5588991 62.5083109,16.7385856 61.1075588,16.7385856 L61.1075588,16.7385856 Z M61.0583215,10.6833975 L56.5656654,10.6833975 L56.5656654,23.2459532 L58.4407037,23.2459532 L58.4407037,18.4870136 L61.0583215,18.4870136 C63.1363382,18.4870136 65.1801902,16.9827626 65.1801902,14.5852056 C65.1801902,12.1886534 63.1363382,10.6833975 61.0583215,10.6833975 L61.0583215,10.6833975 Z M36.5592277,21.8210849 C35.2639842,21.8210849 34.1797578,20.7368586 34.1797578,19.2476802 C34.1797578,17.7414196 35.2639842,16.6411157 36.5592277,16.6411157 C37.8383937,16.6411157 38.8422325,17.7414196 38.8422325,19.2476802 C38.8422325,20.7368586 37.8383937,21.8210849 36.5592277,21.8210849 L36.5592277,21.8210849 Z M38.7126077,15.9126041 L38.6472928,15.9126041 C38.2262633,15.4111871 37.4173642,14.9569977 36.3974478,14.9569977 C34.2601453,14.9569977 32.301705,16.8360554 32.301705,19.2476802 C32.301705,21.6432276 34.2601453,23.5052029 36.3974478,23.5052029 C37.4173642,23.5052029 38.2262633,23.0520184 38.6472928,22.5335191 L38.7126077,22.5335191 L38.7126077,23.1484834 C38.7126077,24.7843689 37.8383937,25.6575781 36.4296028,25.6575781 C35.2810665,25.6575781 34.5686323,24.8326014 34.2772277,24.1362447 L32.642347,24.8165239 C33.111609,25.9489827 34.3576152,27.3416961 36.4296028,27.3416961 C38.6322202,27.3416961 40.4931907,26.0464526 40.4931907,22.8892337 L40.4931907,15.2162474 L38.7126077,15.2162474 L38.7126077,15.9126041 Z M41.7884342,23.2459532 L43.6654822,23.2459532 L43.6654822,10.6844024 L41.7884342,10.6844024 L41.7884342,23.2459532 Z M46.4338265,19.1019779 C46.3865989,17.4500149 47.7139974,16.6089607 48.6685989,16.6089607 C49.413188,16.6089607 50.0442299,16.9817577 50.255247,17.5153297 L46.4338265,19.1019779 Z M52.2619199,17.6771096 C51.9062052,16.7225081 50.8219789,14.9569977 48.6042889,14.9569977 C46.4016715,14.9569977 44.572856,16.6893482 44.572856,19.2316027 C44.572856,21.6271501 46.3865989,23.5052029 48.8143012,23.5052029 C50.7727415,23.5052029 51.9062052,22.3074292 52.3754672,21.6110726 L50.9184439,20.6393887 C50.4331044,21.3518229 49.7699075,21.8210849 48.8143012,21.8210849 C47.8586949,21.8210849 47.1794205,21.3839779 46.7423135,20.5258414 L52.4568595,18.1624491 L52.2619199,17.6771096 Z M6.73446235,16.2693236 L6.73446235,18.0820616 L11.0733774,18.0820616 C10.9437525,19.1019779 10.6041154,19.8465671 10.085616,20.3640616 C9.4545742,20.9961082 8.46681286,21.6924649 6.73446235,21.6924649 C4.06358785,21.6924649 1.97552268,19.5390849 1.97552268,16.8682104 C1.97552268,14.1973359 4.06358785,12.042951 6.73446235,12.042951 C8.17540819,12.042951 9.22747953,12.6096829 10.0042237,13.3391994 L11.2833897,12.0600334 C10.1991634,11.0240395 8.75821753,10.230213 6.73446235,10.230213 C3.07582651,10.230213 0,13.2095746 0,16.8682104 C0,20.5258414 3.07582651,23.5052029 6.73446235,23.5052029 C8.70898019,23.5052029 10.1991634,22.8570787 11.3637772,21.6432276 C12.5625557,20.4454539 12.9343479,18.7623407 12.9343479,17.4017824 C12.9343479,16.9817577 12.9021929,16.5928832 12.8378829,16.2693236 L6.73446235,16.2693236 Z M17.8671255,21.8210849 C16.571882,21.8210849 15.4544958,20.7529361 15.4544958,19.2316027 C15.4544958,17.6931871 16.571882,16.6411157 17.8671255,16.6411157 C19.162369,16.6411157 20.2787503,17.6931871 20.2787503,19.2316027 C20.2787503,20.7529361 19.162369,21.8210849 17.8671255,21.8210849 L17.8671255,21.8210849 Z M17.8671255,14.9569977 C15.5037332,14.9569977 13.5774478,16.7546631 13.5774478,19.2316027 C13.5774478,21.6924649 15.5037332,23.5052029 17.8671255,23.5052029 C20.2305178,23.5052029 22.1568032,21.6924649 22.1568032,19.2316027 C22.1568032,16.7546631 20.2305178,14.9569977 17.8671255,14.9569977 L17.8671255,14.9569977 Z M27.2252347,21.8210849 C25.930996,21.8210849 24.8136099,20.7529361 24.8136099,19.2316027 C24.8136099,17.6931871 25.930996,16.6411157 27.2252347,16.6411157 C28.5204782,16.6411157 29.6378644,17.6931871 29.6378644,19.2316027 C29.6378644,20.7529361 28.5204782,21.8210849 27.2252347,21.8210849 L27.2252347,21.8210849 Z M27.2252347,14.9569977 C24.8618424,14.9569977 22.935557,16.7546631 22.935557,19.2316027 C22.935557,21.6924649 24.8618424,23.5052029 27.2252347,23.5052029 C29.5896319,23.5052029 31.5159172,21.6924649 31.5159172,19.2316027 C31.5159172,16.7546631 29.5896319,14.9569977 27.2252347,14.9569977 L27.2252347,14.9569977 Z"/></g><g transform="translate(0 .276)"><path fill="#000" d="M17.2551255,17.073493 L2.66981942,25.3614437 C1.85388635,25.8236718 1.12436984,25.7935265 0.656112682,25.3714921 L0.581754249,25.4468554 L0.655107838,25.5192041 L0.656112682,25.5181993 C1.12436984,25.9402336 1.85388635,25.9713838 2.66981942,25.5081509 L17.3485759,17.1669435 L17.2551255,17.073493 Z"/><g transform="translate(0 23.888)"><mask id="b" fill="#fff"><use xlink:href="#a"/></mask><path fill="#000" d="M0.581553281,1.41180537 C0.289143769,1.10231352 0.116310656,0.621998239 0.116310656,-1.78496095e-15 L0.116310656,0.146707177 C0.116310656,0.768705416 0.289143769,1.2490207 0.581553281,1.55851255 L0.655911713,1.48415412 L0.581553281,1.41180537 Z" mask="url(#b)"/></g><path fill="#000" d="M22.2651756,14.2267709 L17.255025,17.073493 L17.3484754,17.1669435 L22.2651756,14.373478 C22.9675613,13.9745551 23.3182517,13.4490218 23.3182517,12.9234886 C23.258966,13.3987797 22.9022465,13.8650271 22.2651756,14.2267709"/><path fill="#FFF" d="M2.66971893,0.484830116 L22.2651756,11.6184981 C22.9022465,11.9802418 23.258966,12.4464893 23.3182539,12.9227852 C23.3192566,12.397252 22.9675613,11.8707139 22.2651756,11.4717909 L2.66971893,0.338122939 C1.26494747,-0.459722944 0.11641114,0.203473886 0.11641114,1.81122378 L0.11641114,1.95793095 C0.11641114,0.350181063 1.26494747,-0.313015767 2.66971893,0.484830116"/></g></g><g transform="translate(.122 .342)"><mask id="d" fill="#fff"><use xlink:href="#c"/></mask><path fill="#02D0FF" d="M0.486892511,0.0767670698 C0.180875836,0.400661008 0,0.902275971 0,1.55427026 L0,1.55427026 L0,24.8115376 C0,25.4624803 0.180875836,25.9651468 0.486892511,26.2890408 L0.486892511,26.2890408 L0.563659581,26.3647563 L13.5930294,13.3364381 L13.5930294,13.1829039 L13.5930294,13.0293698 L0.563659581,0 L0.486892511,0.0767670698 Z" mask="url(#d)"/></g><g transform="translate(13.715 9.027)"><mask id="g" fill="#fff"><use xlink:href="#e"/></mask><path fill="url(#f)" d="M0,4.34417487 L0,4.49770901 L0,4.65124315 L4.34207166,8.99646962 L4.44197401,8.94073462 L9.58641929,6.01622474 C11.0565613,5.18125141 11.0565613,3.8141666 9.58641929,2.97919327 L9.58641929,2.97919327 L4.44197401,0.0557349959 L4.34312326,0 L0,4.34417487 Z" mask="url(#g)"/></g><g transform="translate(.609 13.525)"><mask id="j" fill="#fff"><use xlink:href="#h"/></mask><path fill="url(#i)" d="M8.75635977e-16,13.1061369 C0.4837377,13.6193195 1.28400811,13.6824157 2.18523248,13.1702847 L2.18523248,13.1702847 L17.5481109,4.44197401 L13.1061369,0 L8.75635977e-16,13.1061369 Z" mask="url(#j)"/></g><g transform="translate(.609)"><mask id="l" fill="#fff"><use xlink:href="#k"/></mask><path fill="#02F076" d="M8.75635977e-16,0.418538271 L13.1061369,13.5246751 L17.5481109,9.08270112 L2.18523248,0.353338842 C1.76248779,0.113573199 1.36182679,0 1.00638474,0 L1.00638474,0 C0.603620521,0 0.256591302,0.146172914 8.75635977e-16,0.418538271" mask="url(#l)"/></g></g></svg>