<?xml version="1.0" encoding="UTF-8"?>
<svg width="26px" height="26px" viewBox="0 0 26 26" version="1.1" xmlns="http://www.w3.org/2000/svg" xmlns:xlink="http://www.w3.org/1999/xlink">
    <title>编组 4</title>
    <g id="控件" stroke="none" stroke-width="1" fill="none" fill-rule="evenodd">
        <g id="Header_M" transform="translate(-316.000000, -17.000000)">
            <g id="编组-4" transform="translate(316.000000, 17.000000)">
                <circle id="椭圆形" stroke-opacity="0.8" stroke="#000000" stroke-width="2" fill-opacity="0.2" fill="#FFFFFF" cx="13" cy="13" r="12"></circle>
                <g id="gerenzhongxin-2" transform="translate(7.583333, 6.500000)" fill="#000000" fill-opacity="0.8">
                    <path d="M0.352927291,11.6945448 C0.0598693348,11.3795926 0,11.224915 0,10.8630253 C0,9.26918425 2.41426916,7.97732076 5.39251767,7.97732076 C8.37064042,7.97732076 10.8333333,9.26918425 10.8333333,10.8630253 C10.8333333,11.224915 10.6979984,11.645572 10.3353864,11.7923631 C9.9725228,11.939027 0.645985248,12.0093697 0.352927291,11.6945448 Z M5.41332104,0 C7.06488491,0 8.24101571,1.72714877 8.09775691,3.55847593 C7.96066117,5.30864825 6.73799325,6.50523748 5.41332104,6.50523748 C4.08864884,6.50523748 2.86598092,5.30864825 2.72901091,3.55847593 C2.58562633,1.72714877 3.76175716,0 5.41332104,0 Z" id="形状"></path>
                </g>
            </g>
        </g>
    </g>
</svg>