<?xml version="1.0" encoding="UTF-8"?>
<svg width="36px" height="36px" viewBox="0 0 36 36" version="1.1" xmlns="http://www.w3.org/2000/svg" xmlns:xlink="http://www.w3.org/1999/xlink">
    <title>编组 4</title>
    <g id="Index" stroke="none" stroke-width="1" fill="none" fill-rule="evenodd">
        <g id="画板" transform="translate(-560.000000, -1052.000000)">
            <g id="编组-12" transform="translate(0.000000, 490.000000)">
                <g id="编组-4" transform="translate(560.000000, 562.000000)">
                    <circle id="椭圆形" fill-opacity="0.1" fill="#000000" cx="18" cy="18" r="18"></circle>
                    <path d="M26.677406,13.7455697 C26.2895585,12.4603682 25.9845745,11.7481571 24.699373,11.5930108 C24.699373,11.5930108 21.2570676,11.4184849 17.8344328,11.4184849 C14.4505209,11.4184849 11.0858432,11.5930108 11.0858432,11.5930108 C9.72301399,11.7481571 9.39868668,12.4991275 9.04963487,13.7455697 C9.04963487,13.7455697 8.70058306,15.730402 8.70058306,17.7404314 C8.70058306,19.8021641 9.04963487,21.8904393 9.04963487,21.8904393 C9.32113175,23.0980859 9.87819663,23.887852 11.0858432,24.0429982 C11.0858432,24.0429982 14.8203704,24.2756994 18.3774265,24.2756994 C21.6117915,24.2756994 24.6994094,24.0429982 24.6994094,24.0429982 C25.9070559,23.810297 26.3283906,23.1756408 26.6774424,21.8904393 C26.6774424,21.8904393 27.0264942,19.9814895 27.0264942,18.0119283 C27.0264942,15.9131815 26.677406,13.7455697 26.677406,13.7455697 Z M16.0308893,21.250511 L16.0308893,14.3855344 L21.32506,17.8180227 L16.0308893,21.250511 Z" id="形状" fill="#434344" fill-rule="nonzero"></path>
                </g>
            </g>
        </g>
    </g>
</svg>