<?xml version="1.0" encoding="UTF-8"?>
<svg width="36px" height="36px" viewBox="0 0 36 36" version="1.1" xmlns="http://www.w3.org/2000/svg" xmlns:xlink="http://www.w3.org/1999/xlink">
    <title>编组 45</title>
    <g id="Index" stroke="none" stroke-width="1" fill="none" fill-rule="evenodd">
        <g id="画板" transform="translate(-448.000000, -1052.000000)">
            <g id="编组-12" transform="translate(0.000000, 490.000000)">
                <g id="编组-45" transform="translate(448.000000, 562.000000)">
                    <path d="M18,0 C8.05253906,0 0,8.05253906 0,18 C0,27.9474609 8.05253906,36 18,36 C27.9474609,36 36,27.9492188 36,18 C36,8.05078125 27.9492188,0 18,0 Z" id="形状结合" fill-opacity="0.1" fill="#000000"></path>
                    <path d="M21.8561129,17.9056069 L19.3612662,17.9056069 L19.3612662,26.9063086 L15.6564653,26.9063086 L15.6564653,17.9056069 L13.7642101,17.9056069 L13.7642101,14.8053621 L15.6553426,14.8053621 L15.6553426,12.9142296 C15.6553426,10.419383 16.7142982,8.90630859 19.6632636,8.90630859 L22.1581103,8.90630859 L22.1581103,12.0068341 L20.6450359,12.0068341 C19.5111423,12.0068341 19.4356429,12.4609528 19.4356429,13.216227 L19.4356429,14.7293014 L22.233329,14.7293014 L21.8552709,17.9058876 L21.8561129,17.9056069 Z" id="路径" fill="#434344" fill-rule="nonzero"></path>
                </g>
            </g>
        </g>
    </g>
</svg>