<?xml version="1.0" encoding="UTF-8"?>
<svg width="36px" height="36px" viewBox="0 0 36 36" version="1.1" xmlns="http://www.w3.org/2000/svg" xmlns:xlink="http://www.w3.org/1999/xlink">
    <title>编组 44</title>
    <g id="Index" stroke="none" stroke-width="1" fill="none" fill-rule="evenodd">
        <g id="画板" transform="translate(-504.000000, -1052.000000)">
            <g id="编组-12" transform="translate(0.000000, 490.000000)">
                <g id="编组-44" transform="translate(504.000000, 562.000000)">
                    <path d="M18,36 C8.0578125,36 0,27.9421875 0,18 C0,8.0578125 8.0578125,0 18,0 C27.9421875,0 36,8.0578125 36,18 C36,27.9421875 27.9421875,36 18,36 Z" id="形状结合" fill-opacity="0.1" fill="#000000"></path>
                    <path d="M25.1578125,14.9835937 C25.1578125,14.8324219 25.1542969,14.68125 25.1472656,14.5300781 C25.8714844,14.0414062 26.49375,13.4332031 26.9894531,12.7371094 C26.325,13.0078125 25.6148438,13.1871094 24.8660156,13.2609375 C25.6289063,12.8355469 26.2125,12.1570312 26.4902344,11.3414062 C25.7765625,11.7316406 24.9855469,12.0128906 24.1453125,12.1605469 C23.4703125,11.4679687 22.5140625,11.0285156 21.4523438,11.0074219 C19.4132813,10.9757812 17.7609375,12.5367187 17.7609375,14.4878906 C17.7609375,14.765625 17.7925781,15.0363281 17.8558594,15.2929687 C14.7867188,15.1207031 12.0691406,13.6757812 10.2480469,11.4925781 C9.928125,12.0128906 9.74882813,12.6246094 9.74882813,13.2820312 C9.74882813,14.5195312 10.3992188,15.6199219 11.390625,16.2703125 C10.7824219,16.2457031 10.2164063,16.0804687 9.7171875,15.80625 L9.7171875,15.8519531 C9.7171875,17.5816406 10.9933594,19.0300781 12.6808594,19.3710937 C12.3714844,19.4484375 12.0445313,19.490625 11.7070313,19.490625 C11.4679688,19.490625 11.2359375,19.4660156 11.0144531,19.4203125 C11.4855469,20.8371094 12.8460938,21.8742187 14.4632813,21.909375 C13.1976563,22.8585937 11.6085938,23.4246094 9.87890625,23.4210937 C9.58007813,23.4210937 9.28828125,23.4035156 9,23.3683594 C10.6347656,24.384375 12.5753906,24.975 14.6601563,24.975 C21.4453125,24.9714844 25.1578125,19.6242187 25.1578125,14.9835937 Z" id="路径" fill="#434344" fill-rule="nonzero"></path>
                </g>
            </g>
        </g>
    </g>
</svg>