<?xml version="1.0" encoding="UTF-8"?>
<svg width="99px" height="26px" viewBox="0 0 99 26" version="1.1" xmlns="http://www.w3.org/2000/svg" xmlns:xlink="http://www.w3.org/1999/xlink">
    <title>logo_white.83812bb备份</title>
    <g id="页面-1" stroke="none" stroke-width="1" fill="none" fill-rule="evenodd">
        <g id="编组-6" fill="#3A3A3A">
            <path d="M59.5095449,5 C60.1095449,5 60.6095449,5.5 60.6095449,6.1 L60.6095449,20.5 C60.6095449,21.1 60.1095449,21.6 59.5095449,21.6 C59.1095449,21.6 58.8095449,21.4 58.6095449,21.2 L52.9095449,15.5 L53.8095449,14.6 C54.0095449,14.4 54.2095449,14.3 54.4095449,14.3 C54.6095449,14.3 54.8095449,14.4 55.0095449,14.5 L55.1095449,14.6 L55.1095449,14.6 L58.4095449,17.9 L58.4095449,6.2 C58.4095449,5.5 58.9095449,5 59.5095449,5 Z M45.1095449,5 C45.7095449,5 46.2095449,5.5 46.2095449,6.1 L46.2095449,17.8 L51.5095449,12.5 C51.7095449,12.3 52.0095449,12.2 52.3095449,12.2 C52.5095449,12.2 52.8095449,12.3 53.0095449,12.4 L53.1095449,12.5 L54.0095449,13.4 C53.8095449,13.5 53.6095449,13.7 53.4095449,13.8 L53.3095449,13.9 L47.2095449,20 L47.2095449,20 L46.0095449,21.2 C46.0095449,21.2 45.9095449,21.3 45.9095449,21.3 C45.7095449,21.5 45.5095449,21.6 45.2095449,21.6 C44.6095449,21.6 44.1095449,21.1 44.1095449,20.5 L44.1095449,6.1 C44.0095449,5.5 44.5095449,5 45.1095449,5 Z M66.0095449,11.9 C65.8095449,12.2 65.7095449,12.5 65.7095449,12.8 L65.7095449,13 L65.7095449,20.5 C65.7095449,21.1 65.2095449,21.6 64.6095449,21.6 C64.0095449,21.6 63.5095449,21.1 63.5095449,20.5 L63.5095449,14.1 C63.5095449,12.9 64.5095449,11.9 65.7095449,11.9 L66.0095449,11.9 Z M93.2095449,12.2 L93.3095449,12.2 C95.9095449,12.2 98.0095449,14.3 98.0095449,16.9 C98.0095449,19.5 95.9095449,21.6 93.3095449,21.6 L82.5095449,21.6 C81.9095449,21.6 81.4095449,21.1 81.4095449,20.5 C81.4095449,19.9 81.9095449,19.4 82.5095449,19.4 L93.3095449,19.4 C94.7095449,19.4 95.8095449,18.3 95.8095449,17 L95.8095449,17 L95.8095449,16.8 C95.7095449,14.8 94.7095449,13.1 93.2095449,12.2 Z M96.9095449,5 C97.5095449,5 98.0095449,5.5 98.0095449,6.1 C98.0095449,6.7 97.5095449,7.2 96.9095449,7.2 L86.1095449,7.2 C84.7095449,7.2 83.6095449,8.3 83.6095449,9.6 L83.6095449,9.6 C83.6095449,11 84.7095449,12.1 86.0095449,12.1 L90.2095449,12.1 L90.4095449,12.1 C92.1095449,12.2 93.6095449,13.2 94.3095449,14.6 C94.0095449,14.4 93.6095449,14.4 93.2095449,14.3 L86.0095449,14.3 C83.4095449,14.3 81.3095449,12.2 81.3095449,9.6 C81.3095449,7 83.5095449,5 86.1095449,5 L96.9095449,5 Z M75.4095449,5 C78.0095449,5 80.0095449,7 80.0095449,9.6 C80.0095449,12.2 78.0095449,14.2 75.4095449,14.2 L66.4095449,14.2 L66.4095449,13.1 C66.4095449,12.5 66.8095449,12.1 67.4095449,12 L67.5095449,12 L75.4095449,12 C76.7095449,12 77.8095449,10.9 77.8095449,9.6 C77.8095449,8.3 76.8095449,7.3 75.5095449,7.2 L64.5095449,7.2 C63.9095449,7.2 63.4095449,6.7 63.4095449,6.1 C63.4095449,5.5 63.9095449,5 64.5095449,5 L75.4095449,5 Z" id="Combined-Shape"></path>
            <path d="M0.248712906,3.76102248 C-0.368722857,2.43831526 0.20301262,0.865518623 1.52571983,0.24808286 C1.87576748,0.0846816672 2.25737891,0 2.64368618,0 L14.2481084,0 C15.7883294,0 17.1891589,0.892055808 17.8406103,2.28772466 L18.1508089,2.9522937 L15.7808135,8.02910896 L14.3936724,5.05750877 C14.1765148,4.59230338 13.7095809,4.29496622 13.1961868,4.29496622 L6.27531738,4.29496622 C5.91038748,4.29496622 5.61455335,4.59080035 5.61455335,4.95573025 C5.61455335,5.05230765 5.63572402,5.14771107 5.67657479,5.2352234 L12.2067408,19.224434 L20.1128849,2.28761907 C20.7643596,0.892007548 22.1651587,0 23.7053375,0 L27.5726253,0 L27.515681,0.000621644041 C26.5497462,0.0217204066 25.67516,0.578412447 25.247117,1.44451644 L25.2219731,1.49685216 L14.585161,24.2830782 L14.5848793,24.2830782 L14.5522522,24.3472565 C13.9778257,25.4490855 13.1950062,26 12.2037937,26 C11.1935194,26 10.4017038,25.4276927 9.828347,24.2830782 L0.248712906,3.76102248 Z M35.3098417,0 C36.7695613,0 37.9528978,1.18333654 37.9528978,2.64305613 C37.9528978,3.0293634 37.8682161,3.41097483 37.7048149,3.76102248 L28.1251808,24.2830782 L28.1245951,24.2830782 L28.0919417,24.3472565 C27.5175152,25.4490855 26.7346957,26 25.7434832,26 C24.7523187,26 23.9714267,25.4491389 23.400807,24.3474168 L23.3680365,24.2830782 L19.8025538,16.6448112 L22.1725492,11.5678307 L25.7466218,19.224434 L32.2769236,5.23522825 C32.4312861,4.9045531 32.2883564,4.51135241 31.9576813,4.35698992 C31.8701676,4.31613768 31.7747625,4.29496622 31.6781833,4.29496622 L25.567702,4.29496622 L26.8929297,1.47950497 C27.3098414,0.593771419 28.1916335,0.0222902081 29.1670526,0.000637725673 L29.2245354,0 L35.3098417,0 Z" id="形状备份"></path>
        </g>
    </g>
</svg>