<svg xmlns="http://www.w3.org/2000/svg" width="48" height="48" viewBox="0 0 48 48"><g fill="none" fill-rule="evenodd"><rect width="48" height="48"/><g transform="translate(4 4)"><rect width="40" height="40" fill="#EB5451" rx="6"/><g transform="translate(10 8.333)"><g fill="#FFF" transform="translate(0 .44)"><path d="M8.83838384,12.3218599 L5.80972868,12.3218599 C2.48373084,12.3218599 5.03301104e-14,13.2277477 5.03301104e-14,17.2293916 C5.03301104e-14,21.2310355 2.48373084,22.4433877 5.80972868,22.4433877 L8.83838384,22.4433877 L8.83838384,16.5561316 L8.83838384,12.3218599 Z M6.18686869,19.8029891 C3.83689624,19.8029891 2.65151515,19.6961119 2.65151515,17.2139211 C2.65151515,14.7317302 3.83689624,14.9622585 6.18686869,14.9622585 L6.18686869,19.8029891 Z"/><path fill-rule="nonzero" d="M11.9212873,12.3218599 C15.9797,12.3218599 16.7929293,9.87403689 16.7929293,7.48409837 C16.7929293,5.10316419 15.9797,2.66356619 11.9212873,2.64633684 C12.0931959,2.64039855 11.0655614,2.63841912 8.83838384,2.64039855 L8.83838384,12.3218599 C8.26628783,12.3218599 9.29392231,12.3218599 11.9212873,12.3218599 Z M6.18686869,14.9609072 C6.18718973,13.8800859 6.18847389,0.00585139994 6.18686869,0 L11.4858071,0 C12.8156566,0 19.4444444,0 19.4444444,7.7384003 C19.4444444,14.9764893 14.3374803,14.9764893 11.4858071,14.9609072 L6.18686869,14.9609072 Z"/></g><rect width="3.535" height="7.481" x="5.745" y="15.402" fill="#EB5451"/><polygon fill="#EB5451" points="5.745 0 9.722 0 9.722 12.762 5.745 12.762"/><rect width="7.071" height="2.64" x="6.187" y=".44" fill="#FFF" rx="1.32"/><rect width="4.861" height="2.64" x="3.977" y="20.243" fill="#FFF" rx="1.32"/><path fill="#FFF" d="M3.77761995,4.17507274 L11.2476326,4.17507274 C11.9798283,4.17507274 12.5733902,4.76863462 12.5733902,5.50083031 C12.5733902,6.23302601 11.9798283,6.82658789 11.2476326,6.82658789 L3.77761995,6.82658789 C3.04542426,6.82658789 2.45186237,6.23302601 2.45186237,5.50083031 C2.45186237,4.76863462 3.04542426,4.17507274 3.77761995,4.17507274 Z" transform="rotate(90 7.513 5.5)"/><rect width="5.281" height="2.652" x="4.872" y="18.917" fill="#FFF" rx="1.326" transform="rotate(90 7.513 20.243)"/></g></g></g></svg>